<svg width="120" height="120" viewBox="0 0 120 120" fill="none" xmlns="http://www.w3.org/2000/svg">
<path d="M120 60C120 51.5207 115.7 44.0463 109.161 39.6367C110.666 31.8973 108.421 23.573 102.426 17.5735C96.432 11.579 88.1077 9.33422 80.3633 10.8391C75.9537 4.29964 68.4793 0 60 0C51.5207 0 44.0463 4.29964 39.6367 10.8391C31.8973 9.33422 23.568 11.579 17.5735 17.5735C11.579 23.568 9.33422 31.8923 10.8391 39.6367C4.29964 44.0463 0 51.5207 0 60C0 68.4793 4.29964 75.9537 10.8391 80.3633C9.33422 88.1027 11.579 96.432 17.5735 102.426C23.568 108.421 31.8923 110.666 39.6367 109.161C44.0463 115.7 51.5207 120 60 120C68.4793 120 75.9537 115.7 80.3633 109.161C88.1027 110.666 96.432 108.421 102.426 102.426C108.421 96.432 110.666 88.1077 109.161 80.3633C115.7 75.9537 120 68.4793 120 60ZM59.55 77.0936C57.6152 79.0284 55.0704 79.9933 52.5156 79.9933C49.9608 79.9933 47.391 79.0184 45.4362 77.0686L31.5274 63.5897L38.4918 56.4053L52.4556 69.9392L81.4982 41.4365L88.5176 48.561L59.55 77.0936Z" fill="url(#paint0_linear_181_3788)"/>
<defs>
<linearGradient id="paint0_linear_181_3788" x1="25.3846" y1="8.94231" x2="98.6539" y2="133.269" gradientUnits="userSpaceOnUse">
<stop stop-color="#FF4C00"/>
<stop offset="1" stop-color="#FF0000"/>
</linearGradient>
</defs>
</svg>
