<svg width="335" height="52" viewBox="0 0 335 52" fill="none" xmlns="http://www.w3.org/2000/svg">
<rect width="335" height="52" rx="26" fill="#FFCA42"/>
<path d="M98 17.875C99.6611 17.875 101.198 18.1845 102.609 18.8036C104.021 19.4226 105.137 20.2644 105.957 21.3288C106.777 22.3933 107.188 23.5544 107.188 24.8121C107.188 26.0699 106.777 27.2326 105.957 28.3004C105.137 29.3681 104.022 30.2115 102.614 30.8306C101.206 31.4496 99.668 31.7591 98 31.7591C97.4736 31.7591 96.9302 31.7231 96.3696 31.651C93.936 33.269 92.6406 34.0879 92.4834 34.1075C92.4082 34.1337 92.3364 34.1305 92.2681 34.0977C92.2407 34.0781 92.2202 34.0519 92.2065 34.0191C92.1929 33.9863 92.186 33.9569 92.186 33.9307V33.8914C92.2271 33.6359 92.5381 32.5714 93.1191 30.6979C91.7998 30.0691 90.7522 29.2355 89.9763 28.1972C89.2004 27.1589 88.8125 26.0306 88.8125 24.8121C88.8125 23.5544 89.2227 22.3933 90.043 21.3288C90.8633 20.2644 91.9792 19.4226 93.3909 18.8036C94.8025 18.1845 96.3389 17.875 98 17.875Z" fill="#3C1E1E"/>
<path d="M130.084 24.224H132.116C132.276 24.224 132.34 24.304 132.34 24.448V25.84C132.34 25.968 132.276 26.048 132.116 26.048H130.084V33.152C130.084 33.28 130.02 33.344 129.86 33.344H128.228C128.1 33.344 128.036 33.28 128.036 33.152V19.488C128.036 19.36 128.1 19.28 128.228 19.28H129.86C130.02 19.28 130.084 19.36 130.084 19.488V24.224ZM119.316 20.64H126.1C126.26 20.64 126.308 20.704 126.308 20.832V22.912C126.308 26.016 123.86 28.848 119.796 30.864C119.668 30.928 119.572 30.912 119.492 30.784L118.74 29.392C118.66 29.264 118.692 29.152 118.836 29.104C120.772 28.192 122.228 27.088 123.14 25.888C122.34 25.984 121.508 26.048 120.772 26.048H118.98C118.836 26.048 118.788 25.984 118.788 25.84V24.448C118.788 24.32 118.836 24.256 118.98 24.256H120.516C121.62 24.256 122.996 24.208 124.068 24.08C124.18 23.696 124.244 23.296 124.244 22.912V22.448H119.316C119.172 22.448 119.108 22.368 119.108 22.24V20.832C119.108 20.704 119.172 20.64 119.316 20.64ZM144.209 24.224H146.241C146.401 24.224 146.465 24.304 146.465 24.448V25.84C146.465 25.968 146.401 26.048 146.241 26.048H144.209V33.152C144.209 33.28 144.145 33.344 143.985 33.344H142.353C142.225 33.344 142.161 33.28 142.161 33.152V19.488C142.161 19.36 142.225 19.28 142.353 19.28H143.985C144.145 19.28 144.209 19.36 144.209 19.488V24.224ZM133.441 20.64H140.225C140.385 20.64 140.433 20.704 140.433 20.832V22.912C140.433 26.016 137.985 28.848 133.921 30.864C133.793 30.928 133.697 30.912 133.617 30.784L132.865 29.392C132.785 29.264 132.817 29.152 132.961 29.104C134.897 28.192 136.353 27.088 137.265 25.888C136.465 25.984 135.633 26.048 134.897 26.048H133.105C132.961 26.048 132.913 25.984 132.913 25.84V24.448C132.913 24.32 132.961 24.256 133.105 24.256H134.641C135.745 24.256 137.121 24.208 138.193 24.08C138.305 23.696 138.369 23.296 138.369 22.912V22.448H133.441C133.297 22.448 133.233 22.368 133.233 22.24V20.832C133.233 20.704 133.297 20.64 133.441 20.64ZM154.51 30.192H160.046C160.19 30.192 160.254 30.272 160.254 30.4V31.808C160.254 31.92 160.19 32 160.046 32H146.926C146.798 32 146.734 31.92 146.734 31.808V30.4C146.734 30.272 146.798 30.192 146.926 30.192H152.478V27.744C150.174 27.472 148.398 26.192 148.398 24C148.398 21.472 150.718 20.192 153.486 20.192C156.254 20.192 158.558 21.472 158.558 24C158.558 26.192 156.798 27.456 154.51 27.744V30.192ZM150.446 24C150.446 25.312 151.726 26.016 153.486 26.016C155.262 26.016 156.51 25.312 156.51 24C156.51 22.672 155.262 21.984 153.486 21.984C151.726 21.984 150.446 22.672 150.446 24ZM168.635 26.816H174.171C174.315 26.816 174.379 26.896 174.379 27.024V28.272C174.379 28.384 174.315 28.464 174.171 28.464H161.051C160.923 28.464 160.859 28.384 160.859 28.272V27.024C160.859 26.896 160.923 26.816 161.051 26.816H166.587V25.888H163.019C162.891 25.888 162.827 25.808 162.827 25.68V19.92C162.827 19.808 162.891 19.712 163.019 19.712H172.155C172.299 19.712 172.363 19.792 172.363 19.904V21.104C172.363 21.248 172.299 21.328 172.155 21.328H164.827V22.016H172.075C172.203 22.016 172.283 22.096 172.283 22.224V23.376C172.283 23.504 172.203 23.584 172.075 23.584H164.827V24.304H172.411C172.539 24.304 172.619 24.384 172.619 24.512V25.68C172.619 25.808 172.539 25.888 172.411 25.888H168.635V26.816ZM162.843 29.2H172.251C172.395 29.2 172.459 29.28 172.459 29.408V33.312C172.459 33.424 172.395 33.504 172.251 33.504H170.635C170.491 33.504 170.427 33.424 170.427 33.312V30.816H162.843C162.699 30.816 162.635 30.736 162.635 30.624V29.408C162.635 29.28 162.699 29.2 162.843 29.2ZM181.736 27.968C179.048 27.968 176.648 26.624 176.648 24.08C176.648 21.52 179.048 20.192 181.736 20.192C184.424 20.192 186.808 21.52 186.808 24.08C186.808 26.624 184.424 27.968 181.736 27.968ZM181.736 26.16C183.512 26.16 184.76 25.392 184.76 24.08C184.76 22.752 183.512 21.984 181.736 21.984C179.976 21.984 178.696 22.752 178.696 24.08C178.696 25.392 179.976 26.16 181.736 26.16ZM188.296 32H175.176C175.048 32 174.984 31.92 174.984 31.808V30.4C174.984 30.272 175.048 30.192 175.176 30.192H188.296C188.44 30.192 188.504 30.272 188.504 30.4V31.808C188.504 31.92 188.44 32 188.296 32ZM196.885 30.192H202.421C202.565 30.192 202.629 30.272 202.629 30.4V31.808C202.629 31.92 202.565 32 202.421 32H189.301C189.173 32 189.109 31.92 189.109 31.808V30.4C189.109 30.272 189.173 30.192 189.301 30.192H194.853V28.128H191.301C191.157 28.128 191.109 28.048 191.109 27.936V23.616C191.109 23.488 191.157 23.392 191.301 23.392H198.581V22.096H191.269C191.141 22.096 191.077 22.016 191.077 21.872V20.56C191.077 20.432 191.141 20.352 191.269 20.352H200.421C200.565 20.352 200.629 20.432 200.629 20.56V24.848C200.629 24.96 200.549 25.056 200.405 25.056H193.141V26.432H200.741C200.885 26.432 200.965 26.496 200.965 26.64V27.936C200.965 28.048 200.885 28.128 200.741 28.128H196.885V30.192ZM214.525 30.192H220.061C220.205 30.192 220.269 30.272 220.269 30.4V31.808C220.269 31.92 220.205 32 220.061 32H206.941C206.813 32 206.749 31.92 206.749 31.808V30.4C206.749 30.272 206.813 30.192 206.941 30.192H212.493V28.128H208.941C208.797 28.128 208.749 28.048 208.749 27.936V23.616C208.749 23.488 208.797 23.392 208.941 23.392H216.221V22.096H208.909C208.781 22.096 208.717 22.016 208.717 21.872V20.56C208.717 20.432 208.781 20.352 208.909 20.352H218.061C218.205 20.352 218.269 20.432 218.269 20.56V24.848C218.269 24.96 218.189 25.056 218.045 25.056H210.781V26.432H218.381C218.525 26.432 218.605 26.496 218.605 26.64V27.936C218.605 28.048 218.525 28.128 218.381 28.128H214.525V30.192ZM230.33 22.368H222.97C222.842 22.368 222.778 22.288 222.778 22.176V20.768C222.778 20.656 222.842 20.576 222.97 20.576H232.138C232.282 20.576 232.346 20.656 232.346 20.768V22.48C232.346 24.48 232.09 27.008 231.722 28.592C231.69 28.736 231.578 28.784 231.434 28.752L229.962 28.544C229.834 28.528 229.802 28.368 229.818 28.272C230.09 26.848 230.394 24.4 230.346 22.88L230.33 22.368ZM221.066 30.112H234.186C234.33 30.112 234.394 30.192 234.394 30.32V31.728C234.394 31.84 234.33 31.92 234.186 31.92H221.066C220.938 31.92 220.874 31.84 220.874 31.728V30.32C220.874 30.192 220.938 30.112 221.066 30.112ZM247.063 29.536H245.447C245.303 29.536 245.239 29.472 245.239 29.344V19.488C245.239 19.36 245.303 19.28 245.447 19.28H247.063C247.223 19.28 247.287 19.36 247.287 19.488V29.344C247.287 29.472 247.223 29.536 247.063 29.536ZM239.463 27.056C237.175 27.056 235.559 25.568 235.559 23.456C235.559 21.36 237.175 19.872 239.463 19.872C241.751 19.872 243.367 21.36 243.367 23.456C243.367 25.568 241.751 27.056 239.463 27.056ZM239.463 25.328C240.583 25.328 241.367 24.576 241.367 23.456C241.367 22.336 240.583 21.584 239.463 21.584C238.343 21.584 237.559 22.336 237.559 23.456C237.559 24.576 238.343 25.328 239.463 25.328ZM247.383 33.2H238.183C238.039 33.2 237.975 33.12 237.975 32.992V28.432C237.975 28.32 238.039 28.24 238.183 28.24H239.815C239.959 28.24 240.023 28.32 240.023 28.432V31.392H247.383C247.527 31.392 247.591 31.456 247.591 31.6V32.992C247.591 33.12 247.527 33.2 247.383 33.2Z" fill="#1E1E1E"/>
</svg>
